<?xml version="1.0" encoding="UTF-8"?>
<svg xmlns="http://www.w3.org/2000/svg" viewBox="0 0 1425 603">
    <path id="R-2" data-name="R" d="M350.92,385.09c41.08-16.87,75.3-47.01,97.32-85.09,17.02-29.41,26.76-63.57,26.76-100s-9.74-70.59-26.76-100C413.66,40.22,349.03,0,275,0H75V300H0v100H75v200h100v-200h69.05l115.47,200h115.48l-115.47-200-8.61-14.91Zm-50.94-88.23c-7.99,2.05-16.36,3.14-24.98,3.14h-100V100h100c55.23,0,100,44.77,100,100,0,46.61-31.88,85.77-75.02,96.86Z"/>
    <path d="M875,403c0-116.73-77.57-200-195.08-200s-204.92,83.27-204.92,200,83.6,200,204.92,200c93.98,0,164.75-52.85,189.94-133.98h-90.16c-20.9,34.38-53.85,46.48-99.24,46.48-55.88,0-97.89-26.52-110.72-78.1h303.16c1.17-10.77,2.1-22.15,2.1-34.4Zm-305.46-33.33c12.76-52.18,55.7-79.17,109.8-79.17s93.09,27.26,104.38,79.17h-214.18Z"/>
    <path d="M1306.89,470.49c-25.58,80.3-96.06,132.51-189.47,132.51-121.32,0-204.92-83.27-204.92-200s83.6-200,204.92-200c93.28,0,161.39,52.47,185.51,132.49h-95.03c-18.09-29.63-49.94-44.99-91.06-44.99-1.56,0-3.12,.02-4.66,.07-15.71,.46-30.41,3.24-43.61,8.32-28.24,12.14-50.44,36.61-60.55,67.03-3.86,11.61-5.96,24.08-5.96,37.07s1.93,24.44,5.5,35.64c10.12,31.87,33.47,57.39,63.21,69.37,4.64,1.88,9.43,3.42,14.36,4.61,9.75,2.35,17.92,2.63,24.02,2.84,0,0,4.46,.15,8.81,.05,50.93-1.21,76.8-21,76.8-21,8.2-6.31,15.37-14.23,21.53-24.01h90.6Z"/>
    <circle fill="#ce0014" id="POINT_ROUGE-2" data-name="POINT ROUGE" cx="1362.5" cy="150" r="62.5"/>
</svg>